<?xml version="1.0" standalone="no"?>
<!DOCTYPE svg PUBLIC "-//W3C//DTD SVG 20010904//EN"
 "http://www.w3.org/TR/2001/REC-SVG-20010904/DTD/svg10.dtd">
<svg version="1.0" xmlns="http://www.w3.org/2000/svg"
 width="1080.000000pt" height="1080.000000pt" viewBox="0 0 1080.000000 1080.000000"
 preserveAspectRatio="xMidYMid meet">
<metadata>
Created by potrace 1.11, written by Peter Selinger 2001-2013
</metadata>
<g transform="translate(0.000000,1080.000000) scale(0.100000,-0.100000)"
fill="#000000" stroke="none">
<path d="M5129 10676 c-2 -2 -49 -7 -104 -11 -203 -14 -207 -14 -306 -30 -13
-2 -51 -7 -84 -11 -33 -4 -62 -8 -65 -9 -7 -2 -89 -17 -120 -21 -14 -3 -47 -9
-75 -14 -27 -6 -59 -12 -70 -14 -11 -2 -60 -14 -110 -26 -49 -12 -97 -23 -105
-25 -34 -7 -107 -27 -130 -35 -14 -4 -52 -16 -85 -25 -33 -10 -67 -20 -75 -23
-8 -3 -19 -6 -25 -8 -74 -19 -416 -151 -538 -208 -42 -20 -82 -36 -87 -36 -6
0 -10 -5 -10 -12 0 -6 -3 -9 -6 -5 -6 5 -247 -115 -345 -174 -30 -17 -68 -40
-85 -49 -50 -29 -249 -154 -254 -161 -5 -5 -147 -104 -179 -124 -9 -5 -18 -12
-21 -15 -3 -3 -45 -37 -95 -75 -49 -38 -95 -74 -101 -80 -6 -5 -29 -25 -52
-43 -47 -39 -56 -47 -185 -165 -142 -131 -304 -298 -418 -432 -19 -22 -38 -45
-44 -51 -5 -6 -23 -28 -40 -48 -16 -21 -37 -46 -46 -56 -8 -10 -24 -31 -35
-45 -23 -32 -131 -176 -142 -190 -17 -22 -181 -273 -208 -318 -90 -152 -141
-245 -215 -397 -39 -80 -77 -158 -84 -175 -7 -16 -25 -55 -38 -85 -14 -30 -40
-93 -57 -140 -18 -47 -36 -94 -40 -105 -25 -65 -32 -85 -31 -90 1 -3 -6 -19
-14 -35 -8 -16 -15 -32 -15 -35 0 -9 -5 -25 -13 -45 -6 -14 -74 -247 -82 -280
-2 -8 -17 -71 -34 -140 -16 -69 -32 -140 -35 -157 -4 -18 -8 -47 -11 -65 -3
-17 -7 -34 -9 -37 -2 -3 -7 -30 -11 -60 -4 -30 -9 -63 -11 -75 -2 -12 -7 -40
-10 -62 -2 -23 -7 -52 -9 -65 -3 -13 -7 -53 -11 -89 -3 -36 -8 -78 -10 -95
-26 -205 -26 -810 1 -1020 2 -17 6 -55 9 -85 3 -30 8 -65 10 -77 3 -12 7 -48
11 -80 3 -32 8 -65 10 -73 2 -8 6 -31 9 -50 3 -19 12 -71 21 -114 8 -44 17
-91 20 -105 4 -25 70 -290 80 -321 2 -8 13 -46 24 -85 11 -38 27 -90 36 -115
9 -25 18 -52 20 -60 4 -20 54 -160 65 -185 5 -11 19 -45 30 -75 22 -60 26 -68
64 -153 14 -32 26 -60 26 -62 0 -3 20 -47 45 -98 25 -52 45 -99 45 -106 0 -6
3 -11 8 -11 4 0 23 -33 42 -73 19 -39 38 -73 43 -75 4 -2 7 -8 7 -14 0 -5 22
-48 50 -95 27 -47 50 -89 50 -94 0 -5 5 -9 10 -9 6 0 10 -7 10 -15 0 -8 5 -15
10 -15 6 0 10 -5 10 -12 0 -32 337 -501 455 -633 11 -13 40 -46 65 -76 52 -60
215 -232 278 -293 24 -22 71 -68 106 -101 60 -58 78 -74 181 -160 27 -22 56
-47 65 -55 8 -8 43 -35 75 -60 33 -25 62 -48 63 -52 2 -5 10 -8 17 -8 7 0 15
-4 17 -8 2 -4 26 -24 53 -45 28 -20 59 -43 70 -52 36 -28 294 -195 301 -195 4
0 15 -6 23 -14 51 -44 449 -248 636 -326 44 -18 104 -44 133 -56 29 -13 57
-24 62 -24 6 0 18 -4 28 -10 16 -9 150 -57 182 -66 8 -2 67 -20 130 -40 199
-62 506 -136 670 -160 19 -3 42 -7 50 -9 8 -3 40 -7 70 -10 30 -3 64 -8 75
-10 56 -9 146 -19 310 -32 192 -15 780 -7 898 12 12 2 45 6 72 9 91 10 185 23
220 30 11 2 42 7 69 10 27 4 52 9 56 11 3 2 26 6 50 10 25 3 104 20 175 36 72
17 139 32 149 34 86 18 474 142 494 157 6 6 12 8 12 5 0 -5 92 29 157 59 17 8
38 14 47 14 9 0 16 4 16 8 0 5 6 9 13 9 6 0 41 14 77 31 36 17 68 31 72 32 4
1 46 22 94 46 48 24 93 44 100 44 7 0 14 4 16 8 2 5 50 33 108 63 58 29 107
56 110 59 7 8 111 70 116 70 5 0 86 52 94 60 3 3 17 11 33 17 15 7 27 17 27
23 0 5 4 10 10 10 5 0 37 19 70 43 34 23 69 47 78 52 9 6 19 12 22 15 3 3 50
38 105 79 55 41 102 77 105 80 3 3 28 24 55 46 28 22 61 50 75 62 14 12 36 31
50 43 155 133 384 363 505 505 28 33 60 70 73 83 12 12 22 27 22 32 0 4 3 10
8 12 4 2 25 25 47 53 22 27 45 55 50 61 6 6 17 22 25 34 14 20 36 49 60 77 5
7 10 16 10 22 0 5 4 11 8 13 14 5 262 377 262 392 0 2 18 34 40 70 56 92 191
356 182 356 -4 0 -2 4 3 8 13 9 101 203 97 214 -1 4 2 8 8 8 5 0 10 7 10 16 0
8 8 34 19 57 44 99 172 472 185 539 2 7 8 33 15 58 7 25 14 52 16 60 2 8 10
42 19 75 8 33 18 75 21 92 3 18 12 61 19 95 8 35 17 79 20 98 8 52 16 92 21
115 3 18 13 91 20 150 3 28 15 134 20 170 35 260 23 977 -19 1190 -2 11 -7 46
-10 78 -6 50 -13 92 -41 242 -3 17 -10 53 -16 80 -6 28 -12 59 -14 70 -3 19
-56 225 -89 350 -9 33 -26 85 -37 115 -12 30 -22 62 -24 70 -4 20 -71 203 -93
255 -9 21 -17 42 -17 45 0 3 -13 34 -28 70 -16 36 -36 81 -44 100 -42 97 -165
339 -225 444 -37 66 -68 123 -68 126 0 4 -9 15 -20 25 -11 10 -20 22 -20 27 0
11 -165 261 -185 282 -8 8 -15 18 -15 22 0 4 -16 26 -35 50 -19 23 -35 46 -35
51 0 5 -9 15 -20 23 -11 8 -20 19 -20 24 0 9 -4 14 -54 69 -14 15 -26 31 -26
34 0 4 -7 13 -15 22 -19 20 -58 64 -115 131 -116 136 -378 398 -499 498 -24
21 -56 48 -71 62 -16 14 -42 36 -60 50 -17 14 -40 32 -50 40 -10 8 -31 24 -46
35 -15 11 -32 25 -38 30 -6 6 -51 40 -101 75 -49 36 -91 68 -93 73 -2 4 -8 7
-13 7 -5 0 -44 24 -87 53 -85 59 -240 154 -287 177 -16 8 -32 17 -35 20 -19
20 -367 193 -495 246 -22 9 -58 24 -80 34 -95 42 -407 155 -458 165 -9 2 -21
6 -25 9 -11 7 -388 103 -432 111 -19 3 -42 8 -50 10 -8 2 -32 6 -54 10 -21 3
-41 7 -45 9 -3 2 -28 7 -56 10 -27 4 -72 11 -100 16 -63 11 -142 21 -285 35
-36 3 -83 8 -105 11 -44 6 -671 15 -676 10z"/>
</g>
</svg>
